PathFileType	3	(X/Y/Z)	walking_2__view1_aligned.trc
DataRate	CameraRate	NumFrames	NumMarkers	Units	OrigDataRate	OrigDataStartFrame	OrigNumFrames
100.0	100.0	6	19	mm	100.0	992	6300
Frame#	Time	pelvis			neck			head			hip_left			hip_right			knee_left			knee_right			ankle_left			ankle_right			heel_left			heel_right			toe_left			toe_right			shoulder_left			shoulder_right			elbow_left			elbow_right			wrist_left			wrist_right			
		X1	Y1	Z1	X2	Y2	Z2	X3	Y3	Z3	X4	Y4	Z4	X5	Y5	Z5	X6	Y6	Z6	X7	Y7	Z7	X8	Y8	Z8	X9	Y9	Z9	X10	Y10	Z10	X11	Y11	Z11	X12	Y12	Z12	X13	Y13	Z13	X14	Y14	Z14	X15	Y15	Z15	X16	Y16	Z16	X17	Y17	Z17	X18	Y18	Z18	X19	Y19	Z19	
992	9.91000	-25.411789	937.236168	200.018801	-69.190112	1489.060161	281.783339	-56.615613	1564.965141	431.611324	52.755043	939.525107	204.253915	-103.578718	934.947211	195.783791	62.232645	544.702708	410.934537	-154.591017	492.036181	188.149425	78.482941	128.068946	434.429695	-168.715293	139.669677	-10.243343	81.401107	74.260221	408.277019	-165.115503	107.607999	-56.772457	57.854635	100.224846	629.105819	-171.617777	33.937287	132.169791	108.570438	1464.875619	221.675955	-243.065035	1421.703317	262.738469	163.955098	1187.674210	125.055530	-290.258392	1133.128090	295.808276	227.664570	919.527303	108.741621	-243.590058	953.322311	495.708712
993	9.92000	-21.424747	936.732999	198.069221	-65.776341	1488.376060	280.321052	-53.548414	1564.311401	430.314831	56.592900	939.221977	202.690976	-99.442456	934.244010	193.447540	64.168336	543.794925	407.303937	-151.384926	491.561522	186.063378	80.433999	125.114674	435.323875	-165.191508	144.181211	-19.383241	83.485625	70.638992	409.596431	-161.437838	113.469326	-66.476968	59.373493	99.421903	631.805640	-167.984286	35.214906	119.177956	112.116446	1464.118671	221.074972	-239.529262	1420.937078	260.159583	166.814483	1187.060900	123.314695	-285.574525	1132.297358	292.597580	229.822345	918.773264	105.981905	-238.862035	952.615874	492.504685
994	9.93000	-17.437706	936.229831	196.119642	-62.362571	1487.691958	278.858765	-50.481216	1563.657660	429.018338	60.430756	938.918847	201.128037	-95.306194	933.540809	191.111289	66.104028	542.887142	403.673337	-148.178834	491.086864	183.977332	82.385056	122.160403	436.218055	-161.667724	148.692744	-28.523139	85.570142	67.017762	410.915843	-157.760174	119.330652	-76.181480	60.892352	98.618960	634.505460	-164.350795	36.492525	106.186121	115.662455	1463.361724	220.473988	-235.993490	1420.170840	257.580698	169.673868	1186.447591	121.573859	-280.890658	1131.466626	289.386883	231.980119	918.019226	103.222189	-234.134012	951.909437	489.300659
995	9.94000	-13.450664	935.726662	194.170062	-58.948800	1487.007856	277.396479	-47.414017	1563.003919	427.721845	64.268613	938.615717	199.565098	-91.169932	932.837607	188.775038	68.039719	541.979359	400.042737	-144.972742	490.612205	181.891285	84.336114	119.206131	437.112235	-158.143939	153.204278	-37.663037	87.654659	63.396533	412.235255	-154.082509	125.191978	-85.885991	62.411210	97.816017	637.205281	-160.717304	37.770144	93.194287	119.208463	1462.604776	219.873005	-232.457717	1419.404601	255.001813	172.533252	1185.834282	119.833023	-276.206791	1130.635895	286.176187	234.137894	917.265187	100.462473	-229.405989	951.203000	486.096632
996	9.95000	-11.106747	935.553684	193.484344	-56.752100	1486.536847	277.198390	-45.954005	1562.474194	427.670325	66.433637	938.619163	199.060398	-88.647124	932.488205	187.908300	68.241837	540.758197	396.626818	-143.520395	491.234840	185.030423	83.754957	118.512017	432.963219	-157.142070	157.133101	-40.352572	87.097237	62.823128	408.076153	-153.045483	130.071272	-89.088088	61.563633	97.020374	632.504767	-160.360555	39.142935	87.831992	121.827491	1461.890818	220.939468	-230.214934	1418.747336	253.627655	175.164789	1185.203941	121.325413	-273.422975	1129.888273	283.517730	234.222898	917.388389	103.786521	-229.281784	949.711753	481.972941
997	9.96000	-8.762830	935.380707	192.798626	-54.555401	1486.065837	277.000302	-44.493992	1561.944468	427.618805	68.598662	938.622610	198.555697	-86.124316	932.138803	187.041561	68.443955	539.537035	393.210900	-142.068047	491.857474	188.169562	83.173800	117.817904	428.814204	-156.140201	161.061923	-43.042107	86.539815	62.249723	403.917052	-152.008458	134.950565	-92.290184	60.716055	96.224732	627.804254	-160.003806	40.515726	82.469697	124.446519	1461.176861	222.005932	-227.972152	1418.090071	252.253498	177.796326	1184.573600	122.817803	-270.639158	1129.140652	280.859272	234.307902	917.511590	107.110570	-229.157579	948.220506	477.849251
